<svg xmlns="http://www.w3.org/2000/svg" viewBox="0 0 720 260" role="img" aria-label="Curved film ribbon decorative element">
  <defs>
    <linearGradient id="film" x1="0" y1="0" x2="1" y2="1">
      <stop offset="0" stop-color="#2a171c"/>
      <stop offset=".55" stop-color="#6a1e28"/>
      <stop offset="1" stop-color="#130b0e"/>
    </linearGradient>
    <filter id="shadow" x="-10%" y="-40%" width="120%" height="180%">
      <feDropShadow dx="0" dy="16" stdDeviation="12" flood-color="#301015" flood-opacity=".28"/>
    </filter>
  </defs>
  <path d="M28 138C172 19 298 221 430 111c92-77 166-73 262-3" fill="none" stroke="url(#film)" stroke-width="76" stroke-linecap="round" filter="url(#shadow)"/>
  <path d="M30 138C176 35 291 203 425 102c95-71 169-66 263 5" fill="none" stroke="#f3dfcb" stroke-width="2" opacity=".36"/>
  <g fill="#f7e9d6" opacity=".72">
    <rect x="69" y="96" width="20" height="15" rx="2" transform="rotate(-20 79 104)"/>
    <rect x="123" y="83" width="20" height="15" rx="2" transform="rotate(-3 133 91)"/>
    <rect x="181" y="104" width="20" height="15" rx="2" transform="rotate(24 191 112)"/>
    <rect x="242" y="143" width="20" height="15" rx="2" transform="rotate(27 252 151)"/>
    <rect x="306" y="159" width="20" height="15" rx="2" transform="rotate(4 316 167)"/>
    <rect x="366" y="135" width="20" height="15" rx="2" transform="rotate(-24 376 143)"/>
    <rect x="426" y="88" width="20" height="15" rx="2" transform="rotate(-29 436 96)"/>
    <rect x="493" y="64" width="20" height="15" rx="2" transform="rotate(-10 503 72)"/>
    <rect x="558" y="72" width="20" height="15" rx="2" transform="rotate(12 568 80)"/>
    <rect x="620" y="96" width="20" height="15" rx="2" transform="rotate(18 630 104)"/>
  </g>
</svg>
